<mxfile host="app.diagrams.net" modified="2022-10-13T23:59:28.186Z" agent="5.0 (Macintosh; Intel Mac OS X 10_15_7) AppleWebKit/537.36 (KHTML, like Gecko) Chrome/105.0.0.0 Safari/537.36" etag="Wpt2lR7HvNGkVKt3bGfg" version="20.4.0" type="github">
  <diagram id="s3gwtttmWcBtVnB6k0bj" name="Page-1">
    <mxGraphModel dx="3530" dy="1846" grid="1" gridSize="10" guides="1" tooltips="1" connect="1" arrows="1" fold="1" page="1" pageScale="1" pageWidth="827" pageHeight="1169" math="0" shadow="0">
      <root>
        <mxCell id="0" />
        <mxCell id="1" parent="0" />
        <mxCell id="-173u6EWaOJRB0G8Tm7Y-28" style="edgeStyle=orthogonalEdgeStyle;rounded=0;orthogonalLoop=1;jettySize=auto;html=1;entryX=0.5;entryY=1;entryDx=0;entryDy=0;endArrow=none;endFill=0;" edge="1" parent="1" source="v_g-FSZpliw-oaSJocSb-1" target="v_g-FSZpliw-oaSJocSb-3">
          <mxGeometry relative="1" as="geometry" />
        </mxCell>
        <mxCell id="-173u6EWaOJRB0G8Tm7Y-29" style="edgeStyle=orthogonalEdgeStyle;rounded=0;orthogonalLoop=1;jettySize=auto;html=1;entryX=0.5;entryY=1;entryDx=0;entryDy=0;endArrow=none;endFill=0;" edge="1" parent="1" source="v_g-FSZpliw-oaSJocSb-1" target="-173u6EWaOJRB0G8Tm7Y-1">
          <mxGeometry relative="1" as="geometry" />
        </mxCell>
        <mxCell id="-173u6EWaOJRB0G8Tm7Y-30" style="edgeStyle=orthogonalEdgeStyle;rounded=0;orthogonalLoop=1;jettySize=auto;html=1;entryX=0.583;entryY=1.058;entryDx=0;entryDy=0;entryPerimeter=0;endArrow=none;endFill=0;" edge="1" parent="1" source="v_g-FSZpliw-oaSJocSb-1" target="-173u6EWaOJRB0G8Tm7Y-3">
          <mxGeometry relative="1" as="geometry" />
        </mxCell>
        <mxCell id="v_g-FSZpliw-oaSJocSb-1" value="Database" style="rounded=1;whiteSpace=wrap;html=1;" parent="1" vertex="1">
          <mxGeometry x="320" y="515" width="120" height="60" as="geometry" />
        </mxCell>
        <mxCell id="v_g-FSZpliw-oaSJocSb-2" value="Credit Authorisation" style="rounded=1;whiteSpace=wrap;html=1;" parent="1" vertex="1">
          <mxGeometry x="590" y="280" width="120" height="60" as="geometry" />
        </mxCell>
        <mxCell id="-173u6EWaOJRB0G8Tm7Y-27" style="edgeStyle=orthogonalEdgeStyle;rounded=0;orthogonalLoop=1;jettySize=auto;html=1;entryX=0.5;entryY=1;entryDx=0;entryDy=0;endArrow=none;endFill=0;" edge="1" parent="1" source="v_g-FSZpliw-oaSJocSb-3" target="-173u6EWaOJRB0G8Tm7Y-23">
          <mxGeometry relative="1" as="geometry" />
        </mxCell>
        <mxCell id="v_g-FSZpliw-oaSJocSb-3" value="Inventory" style="rounded=1;whiteSpace=wrap;html=1;" parent="1" vertex="1">
          <mxGeometry y="400" width="120" height="60" as="geometry" />
        </mxCell>
        <mxCell id="-173u6EWaOJRB0G8Tm7Y-25" style="edgeStyle=orthogonalEdgeStyle;rounded=0;orthogonalLoop=1;jettySize=auto;html=1;entryX=0.5;entryY=1;entryDx=0;entryDy=0;endArrow=none;endFill=0;" edge="1" parent="1" source="-173u6EWaOJRB0G8Tm7Y-1" target="-173u6EWaOJRB0G8Tm7Y-7">
          <mxGeometry relative="1" as="geometry" />
        </mxCell>
        <mxCell id="-173u6EWaOJRB0G8Tm7Y-34" style="edgeStyle=orthogonalEdgeStyle;rounded=0;orthogonalLoop=1;jettySize=auto;html=1;entryX=0.75;entryY=1;entryDx=0;entryDy=0;endArrow=none;endFill=0;" edge="1" parent="1" source="-173u6EWaOJRB0G8Tm7Y-1" target="-173u6EWaOJRB0G8Tm7Y-23">
          <mxGeometry relative="1" as="geometry">
            <Array as="points">
              <mxPoint x="220" y="430" />
              <mxPoint x="220" y="380" />
              <mxPoint x="100" y="380" />
            </Array>
          </mxGeometry>
        </mxCell>
        <mxCell id="-173u6EWaOJRB0G8Tm7Y-1" value="Staff" style="rounded=1;whiteSpace=wrap;html=1;" vertex="1" parent="1">
          <mxGeometry x="320" y="400" width="120" height="60" as="geometry" />
        </mxCell>
        <mxCell id="-173u6EWaOJRB0G8Tm7Y-20" style="edgeStyle=orthogonalEdgeStyle;rounded=0;orthogonalLoop=1;jettySize=auto;html=1;entryX=1;entryY=0.5;entryDx=0;entryDy=0;endArrow=none;endFill=0;" edge="1" parent="1" source="-173u6EWaOJRB0G8Tm7Y-3" target="-173u6EWaOJRB0G8Tm7Y-7">
          <mxGeometry relative="1" as="geometry" />
        </mxCell>
        <mxCell id="-173u6EWaOJRB0G8Tm7Y-3" value="Item" style="rounded=1;whiteSpace=wrap;html=1;" vertex="1" parent="1">
          <mxGeometry x="520" y="400" width="120" height="60" as="geometry" />
        </mxCell>
        <mxCell id="-173u6EWaOJRB0G8Tm7Y-4" value="Sale Page" style="rounded=1;whiteSpace=wrap;html=1;" vertex="1" parent="1">
          <mxGeometry x="440" y="120" width="120" height="60" as="geometry" />
        </mxCell>
        <mxCell id="-173u6EWaOJRB0G8Tm7Y-18" style="edgeStyle=orthogonalEdgeStyle;rounded=0;orthogonalLoop=1;jettySize=auto;html=1;entryX=0.5;entryY=1;entryDx=0;entryDy=0;endArrow=none;endFill=0;" edge="1" parent="1" source="-173u6EWaOJRB0G8Tm7Y-7" target="-173u6EWaOJRB0G8Tm7Y-4">
          <mxGeometry relative="1" as="geometry">
            <Array as="points">
              <mxPoint x="380" y="240" />
              <mxPoint x="500" y="240" />
            </Array>
          </mxGeometry>
        </mxCell>
        <mxCell id="-173u6EWaOJRB0G8Tm7Y-22" style="edgeStyle=orthogonalEdgeStyle;rounded=0;orthogonalLoop=1;jettySize=auto;html=1;entryX=0;entryY=0.5;entryDx=0;entryDy=0;endArrow=none;endFill=0;" edge="1" parent="1" source="-173u6EWaOJRB0G8Tm7Y-7" target="v_g-FSZpliw-oaSJocSb-2">
          <mxGeometry relative="1" as="geometry">
            <Array as="points">
              <mxPoint x="590" y="300" />
            </Array>
          </mxGeometry>
        </mxCell>
        <mxCell id="-173u6EWaOJRB0G8Tm7Y-7" value="Sale Service" style="rounded=1;whiteSpace=wrap;html=1;" vertex="1" parent="1">
          <mxGeometry x="320" y="280" width="120" height="60" as="geometry" />
        </mxCell>
        <mxCell id="-173u6EWaOJRB0G8Tm7Y-9" value="UI" style="text;html=1;align=center;verticalAlign=middle;resizable=0;points=[];autosize=1;strokeColor=none;fillColor=none;" vertex="1" parent="1">
          <mxGeometry x="760" y="125" width="40" height="30" as="geometry" />
        </mxCell>
        <mxCell id="-173u6EWaOJRB0G8Tm7Y-10" value="Service" style="text;html=1;align=center;verticalAlign=middle;resizable=0;points=[];autosize=1;strokeColor=none;fillColor=none;" vertex="1" parent="1">
          <mxGeometry x="730" y="295" width="60" height="30" as="geometry" />
        </mxCell>
        <mxCell id="-173u6EWaOJRB0G8Tm7Y-11" value="Domain" style="text;html=1;align=center;verticalAlign=middle;resizable=0;points=[];autosize=1;strokeColor=none;fillColor=none;" vertex="1" parent="1">
          <mxGeometry x="750" y="430" width="60" height="30" as="geometry" />
        </mxCell>
        <mxCell id="-173u6EWaOJRB0G8Tm7Y-12" value="DB" style="text;html=1;align=center;verticalAlign=middle;resizable=0;points=[];autosize=1;strokeColor=none;fillColor=none;" vertex="1" parent="1">
          <mxGeometry x="770" y="530" width="40" height="30" as="geometry" />
        </mxCell>
        <mxCell id="-173u6EWaOJRB0G8Tm7Y-26" style="edgeStyle=orthogonalEdgeStyle;rounded=0;orthogonalLoop=1;jettySize=auto;html=1;entryX=0;entryY=0.5;entryDx=0;entryDy=0;endArrow=none;endFill=0;exitX=1;exitY=0.5;exitDx=0;exitDy=0;" edge="1" parent="1" source="-173u6EWaOJRB0G8Tm7Y-23" target="-173u6EWaOJRB0G8Tm7Y-7">
          <mxGeometry relative="1" as="geometry">
            <Array as="points">
              <mxPoint x="140" y="310" />
              <mxPoint x="140" y="360" />
              <mxPoint x="310" y="360" />
              <mxPoint x="310" y="310" />
            </Array>
          </mxGeometry>
        </mxCell>
        <mxCell id="-173u6EWaOJRB0G8Tm7Y-23" value="Inventory Updater" style="rounded=1;whiteSpace=wrap;html=1;" vertex="1" parent="1">
          <mxGeometry y="280" width="120" height="60" as="geometry" />
        </mxCell>
        <mxCell id="-173u6EWaOJRB0G8Tm7Y-32" style="edgeStyle=orthogonalEdgeStyle;rounded=0;orthogonalLoop=1;jettySize=auto;html=1;entryX=0.5;entryY=0;entryDx=0;entryDy=0;endArrow=none;endFill=0;" edge="1" parent="1" source="-173u6EWaOJRB0G8Tm7Y-31" target="-173u6EWaOJRB0G8Tm7Y-23">
          <mxGeometry relative="1" as="geometry">
            <Array as="points">
              <mxPoint x="180" y="240" />
              <mxPoint x="60" y="240" />
            </Array>
          </mxGeometry>
        </mxCell>
        <mxCell id="-173u6EWaOJRB0G8Tm7Y-31" value="Inventory Page" style="rounded=1;whiteSpace=wrap;html=1;" vertex="1" parent="1">
          <mxGeometry x="120" y="120" width="120" height="60" as="geometry" />
        </mxCell>
        <mxCell id="-173u6EWaOJRB0G8Tm7Y-35" value="Search Page" style="rounded=1;whiteSpace=wrap;html=1;" vertex="1" parent="1">
          <mxGeometry x="280" y="120" width="120" height="60" as="geometry" />
        </mxCell>
        <mxCell id="-173u6EWaOJRB0G8Tm7Y-38" style="edgeStyle=orthogonalEdgeStyle;rounded=0;orthogonalLoop=1;jettySize=auto;html=1;entryX=0.5;entryY=1;entryDx=0;entryDy=0;endArrow=none;endFill=0;" edge="1" parent="1" source="-173u6EWaOJRB0G8Tm7Y-37" target="-173u6EWaOJRB0G8Tm7Y-35">
          <mxGeometry relative="1" as="geometry">
            <Array as="points">
              <mxPoint x="220" y="240" />
              <mxPoint x="340" y="240" />
            </Array>
          </mxGeometry>
        </mxCell>
        <mxCell id="-173u6EWaOJRB0G8Tm7Y-39" style="edgeStyle=orthogonalEdgeStyle;rounded=0;orthogonalLoop=1;jettySize=auto;html=1;entryX=0.5;entryY=0;entryDx=0;entryDy=0;endArrow=none;endFill=0;jumpStyle=arc;" edge="1" parent="1" source="-173u6EWaOJRB0G8Tm7Y-37" target="-173u6EWaOJRB0G8Tm7Y-3">
          <mxGeometry relative="1" as="geometry">
            <Array as="points">
              <mxPoint x="220" y="370" />
              <mxPoint x="580" y="370" />
            </Array>
          </mxGeometry>
        </mxCell>
        <mxCell id="-173u6EWaOJRB0G8Tm7Y-37" value="Search Service" style="rounded=1;whiteSpace=wrap;html=1;" vertex="1" parent="1">
          <mxGeometry x="160" y="280" width="120" height="60" as="geometry" />
        </mxCell>
        <mxCell id="-173u6EWaOJRB0G8Tm7Y-42" value="&lt;p style=&quot;margin:0px;margin-top:6px;text-align:center;&quot;&gt;&lt;b&gt;User Interface&lt;/b&gt;&lt;/p&gt;&lt;hr&gt;&lt;p style=&quot;margin:0px;margin-left:8px;&quot;&gt;&lt;br&gt;&lt;/p&gt;" style="align=left;overflow=fill;html=1;dropTarget=0;" vertex="1" parent="1">
          <mxGeometry x="40" y="680" width="760" height="210" as="geometry" />
        </mxCell>
        <mxCell id="-173u6EWaOJRB0G8Tm7Y-43" value="" style="shape=component;jettyWidth=8;jettyHeight=4;" vertex="1" parent="-173u6EWaOJRB0G8Tm7Y-42">
          <mxGeometry x="1" width="20" height="20" relative="1" as="geometry">
            <mxPoint x="-24" y="4" as="offset" />
          </mxGeometry>
        </mxCell>
        <mxCell id="-173u6EWaOJRB0G8Tm7Y-45" value="Inventory Page" style="html=1;dropTarget=0;" vertex="1" parent="1">
          <mxGeometry x="70" y="740" width="180" height="90" as="geometry" />
        </mxCell>
        <mxCell id="-173u6EWaOJRB0G8Tm7Y-46" value="" style="shape=module;jettyWidth=8;jettyHeight=4;" vertex="1" parent="-173u6EWaOJRB0G8Tm7Y-45">
          <mxGeometry x="1" width="20" height="20" relative="1" as="geometry">
            <mxPoint x="-27" y="7" as="offset" />
          </mxGeometry>
        </mxCell>
        <mxCell id="-173u6EWaOJRB0G8Tm7Y-47" value="Search Page" style="html=1;dropTarget=0;" vertex="1" parent="1">
          <mxGeometry x="320" y="740" width="180" height="90" as="geometry" />
        </mxCell>
        <mxCell id="-173u6EWaOJRB0G8Tm7Y-48" value="" style="shape=module;jettyWidth=8;jettyHeight=4;" vertex="1" parent="-173u6EWaOJRB0G8Tm7Y-47">
          <mxGeometry x="1" width="20" height="20" relative="1" as="geometry">
            <mxPoint x="-27" y="7" as="offset" />
          </mxGeometry>
        </mxCell>
        <mxCell id="-173u6EWaOJRB0G8Tm7Y-49" value="Sale Page" style="html=1;dropTarget=0;" vertex="1" parent="1">
          <mxGeometry x="580" y="740" width="180" height="90" as="geometry" />
        </mxCell>
        <mxCell id="-173u6EWaOJRB0G8Tm7Y-50" value="" style="shape=module;jettyWidth=8;jettyHeight=4;" vertex="1" parent="-173u6EWaOJRB0G8Tm7Y-49">
          <mxGeometry x="1" width="20" height="20" relative="1" as="geometry">
            <mxPoint x="-27" y="7" as="offset" />
          </mxGeometry>
        </mxCell>
        <mxCell id="-173u6EWaOJRB0G8Tm7Y-51" value="&lt;p style=&quot;margin:0px;margin-top:6px;text-align:center;&quot;&gt;&lt;b&gt;Services&lt;/b&gt;&lt;/p&gt;&lt;hr&gt;&lt;p style=&quot;margin:0px;margin-left:8px;&quot;&gt;&lt;br&gt;&lt;/p&gt;" style="align=left;overflow=fill;html=1;dropTarget=0;" vertex="1" parent="1">
          <mxGeometry x="40" y="990" width="760" height="210" as="geometry" />
        </mxCell>
        <mxCell id="-173u6EWaOJRB0G8Tm7Y-52" value="" style="shape=component;jettyWidth=8;jettyHeight=4;" vertex="1" parent="-173u6EWaOJRB0G8Tm7Y-51">
          <mxGeometry x="1" width="20" height="20" relative="1" as="geometry">
            <mxPoint x="-24" y="4" as="offset" />
          </mxGeometry>
        </mxCell>
        <mxCell id="-173u6EWaOJRB0G8Tm7Y-53" value="&lt;p style=&quot;margin:0px;margin-top:6px;text-align:center;&quot;&gt;&lt;b&gt;External Services&lt;/b&gt;&lt;/p&gt;&lt;hr&gt;&lt;p style=&quot;margin:0px;margin-left:8px;&quot;&gt;&lt;br&gt;&lt;/p&gt;" style="align=left;overflow=fill;html=1;dropTarget=0;" vertex="1" parent="1">
          <mxGeometry x="860" y="1000" width="320" height="200" as="geometry" />
        </mxCell>
        <mxCell id="-173u6EWaOJRB0G8Tm7Y-54" value="" style="shape=component;jettyWidth=8;jettyHeight=4;" vertex="1" parent="-173u6EWaOJRB0G8Tm7Y-53">
          <mxGeometry x="1" width="20" height="20" relative="1" as="geometry">
            <mxPoint x="-24" y="4" as="offset" />
          </mxGeometry>
        </mxCell>
        <mxCell id="-173u6EWaOJRB0G8Tm7Y-55" value="Credit Agency" style="html=1;dropTarget=0;" vertex="1" parent="1">
          <mxGeometry x="930" y="1060" width="180" height="90" as="geometry" />
        </mxCell>
        <mxCell id="-173u6EWaOJRB0G8Tm7Y-56" value="" style="shape=module;jettyWidth=8;jettyHeight=4;" vertex="1" parent="-173u6EWaOJRB0G8Tm7Y-55">
          <mxGeometry x="1" width="20" height="20" relative="1" as="geometry">
            <mxPoint x="-27" y="7" as="offset" />
          </mxGeometry>
        </mxCell>
        <mxCell id="-173u6EWaOJRB0G8Tm7Y-93" style="edgeStyle=orthogonalEdgeStyle;rounded=0;jumpStyle=arc;orthogonalLoop=1;jettySize=auto;html=1;entryX=0;entryY=0.5;entryDx=0;entryDy=0;entryPerimeter=0;endArrow=none;endFill=0;startArrow=none;" edge="1" parent="1" source="-173u6EWaOJRB0G8Tm7Y-100" target="-173u6EWaOJRB0G8Tm7Y-92">
          <mxGeometry relative="1" as="geometry" />
        </mxCell>
        <mxCell id="-173u6EWaOJRB0G8Tm7Y-57" value="Sale" style="html=1;dropTarget=0;" vertex="1" parent="1">
          <mxGeometry x="590" y="1060" width="180" height="90" as="geometry" />
        </mxCell>
        <mxCell id="-173u6EWaOJRB0G8Tm7Y-58" value="" style="shape=module;jettyWidth=8;jettyHeight=4;" vertex="1" parent="-173u6EWaOJRB0G8Tm7Y-57">
          <mxGeometry x="1" width="20" height="20" relative="1" as="geometry">
            <mxPoint x="-27" y="7" as="offset" />
          </mxGeometry>
        </mxCell>
        <mxCell id="-173u6EWaOJRB0G8Tm7Y-77" style="edgeStyle=orthogonalEdgeStyle;rounded=0;jumpStyle=arc;orthogonalLoop=1;jettySize=auto;html=1;endArrow=none;endFill=0;" edge="1" parent="1" source="-173u6EWaOJRB0G8Tm7Y-75" target="-173u6EWaOJRB0G8Tm7Y-57">
          <mxGeometry relative="1" as="geometry" />
        </mxCell>
        <mxCell id="-173u6EWaOJRB0G8Tm7Y-75" value="" style="shape=providedRequiredInterface;html=1;verticalLabelPosition=bottom;sketch=0;flipH=1;" vertex="1" parent="1">
          <mxGeometry x="810" y="1095" width="20" height="20" as="geometry" />
        </mxCell>
        <mxCell id="-173u6EWaOJRB0G8Tm7Y-78" value="&lt;p style=&quot;margin:0px;margin-top:6px;text-align:center;&quot;&gt;&lt;b&gt;Domain&lt;/b&gt;&lt;/p&gt;&lt;hr&gt;&lt;p style=&quot;margin:0px;margin-left:8px;&quot;&gt;&lt;br&gt;&lt;/p&gt;" style="align=left;overflow=fill;html=1;dropTarget=0;" vertex="1" parent="1">
          <mxGeometry x="50" y="1260" width="760" height="240" as="geometry" />
        </mxCell>
        <mxCell id="-173u6EWaOJRB0G8Tm7Y-79" value="" style="shape=component;jettyWidth=8;jettyHeight=4;" vertex="1" parent="-173u6EWaOJRB0G8Tm7Y-78">
          <mxGeometry x="1" width="20" height="20" relative="1" as="geometry">
            <mxPoint x="-24" y="4" as="offset" />
          </mxGeometry>
        </mxCell>
        <mxCell id="-173u6EWaOJRB0G8Tm7Y-90" style="edgeStyle=orthogonalEdgeStyle;rounded=0;jumpStyle=arc;orthogonalLoop=1;jettySize=auto;html=1;endArrow=none;endFill=0;startArrow=none;" edge="1" parent="1" target="-173u6EWaOJRB0G8Tm7Y-89">
          <mxGeometry relative="1" as="geometry">
            <mxPoint x="430" y="1340" as="sourcePoint" />
            <Array as="points">
              <mxPoint x="430" y="1310" />
              <mxPoint x="590" y="1310" />
            </Array>
          </mxGeometry>
        </mxCell>
        <mxCell id="-173u6EWaOJRB0G8Tm7Y-80" value="Staff" style="html=1;dropTarget=0;" vertex="1" parent="1">
          <mxGeometry x="340" y="1340" width="180" height="90" as="geometry" />
        </mxCell>
        <mxCell id="-173u6EWaOJRB0G8Tm7Y-81" value="" style="shape=module;jettyWidth=8;jettyHeight=4;" vertex="1" parent="-173u6EWaOJRB0G8Tm7Y-80">
          <mxGeometry x="1" width="20" height="20" relative="1" as="geometry">
            <mxPoint x="-27" y="7" as="offset" />
          </mxGeometry>
        </mxCell>
        <mxCell id="-173u6EWaOJRB0G8Tm7Y-82" value="Inventory" style="html=1;dropTarget=0;" vertex="1" parent="1">
          <mxGeometry x="100" y="1340" width="180" height="90" as="geometry" />
        </mxCell>
        <mxCell id="-173u6EWaOJRB0G8Tm7Y-83" value="" style="shape=module;jettyWidth=8;jettyHeight=4;" vertex="1" parent="-173u6EWaOJRB0G8Tm7Y-82">
          <mxGeometry x="1" width="20" height="20" relative="1" as="geometry">
            <mxPoint x="-27" y="7" as="offset" />
          </mxGeometry>
        </mxCell>
        <mxCell id="-173u6EWaOJRB0G8Tm7Y-87" style="edgeStyle=orthogonalEdgeStyle;rounded=0;jumpStyle=arc;orthogonalLoop=1;jettySize=auto;html=1;entryX=0;entryY=0.5;entryDx=0;entryDy=0;entryPerimeter=0;endArrow=none;endFill=0;" edge="1" parent="1" source="-173u6EWaOJRB0G8Tm7Y-84" target="-173u6EWaOJRB0G8Tm7Y-86">
          <mxGeometry relative="1" as="geometry">
            <Array as="points">
              <mxPoint x="660" y="1300" />
              <mxPoint x="700" y="1300" />
            </Array>
          </mxGeometry>
        </mxCell>
        <mxCell id="-173u6EWaOJRB0G8Tm7Y-84" value="Item" style="html=1;dropTarget=0;" vertex="1" parent="1">
          <mxGeometry x="570" y="1340" width="180" height="90" as="geometry" />
        </mxCell>
        <mxCell id="-173u6EWaOJRB0G8Tm7Y-85" value="" style="shape=module;jettyWidth=8;jettyHeight=4;" vertex="1" parent="-173u6EWaOJRB0G8Tm7Y-84">
          <mxGeometry x="1" width="20" height="20" relative="1" as="geometry">
            <mxPoint x="-27" y="7" as="offset" />
          </mxGeometry>
        </mxCell>
        <mxCell id="-173u6EWaOJRB0G8Tm7Y-88" style="edgeStyle=orthogonalEdgeStyle;rounded=0;jumpStyle=arc;orthogonalLoop=1;jettySize=auto;html=1;endArrow=none;endFill=0;" edge="1" parent="1" source="-173u6EWaOJRB0G8Tm7Y-86">
          <mxGeometry relative="1" as="geometry">
            <mxPoint x="700" y="1150" as="targetPoint" />
          </mxGeometry>
        </mxCell>
        <mxCell id="-173u6EWaOJRB0G8Tm7Y-86" value="" style="shape=providedRequiredInterface;html=1;verticalLabelPosition=bottom;sketch=0;direction=north;" vertex="1" parent="1">
          <mxGeometry x="690" y="1220" width="20" height="20" as="geometry" />
        </mxCell>
        <mxCell id="-173u6EWaOJRB0G8Tm7Y-91" style="edgeStyle=orthogonalEdgeStyle;rounded=0;jumpStyle=arc;orthogonalLoop=1;jettySize=auto;html=1;entryX=0.25;entryY=1;entryDx=0;entryDy=0;endArrow=none;endFill=0;" edge="1" parent="1" source="-173u6EWaOJRB0G8Tm7Y-89" target="-173u6EWaOJRB0G8Tm7Y-57">
          <mxGeometry relative="1" as="geometry" />
        </mxCell>
        <mxCell id="-173u6EWaOJRB0G8Tm7Y-89" value="" style="shape=providedRequiredInterface;html=1;verticalLabelPosition=bottom;sketch=0;direction=north;" vertex="1" parent="1">
          <mxGeometry x="580" y="1220" width="20" height="20" as="geometry" />
        </mxCell>
        <mxCell id="-173u6EWaOJRB0G8Tm7Y-94" style="edgeStyle=orthogonalEdgeStyle;rounded=0;jumpStyle=arc;orthogonalLoop=1;jettySize=auto;html=1;endArrow=none;endFill=0;" edge="1" parent="1" source="-173u6EWaOJRB0G8Tm7Y-92">
          <mxGeometry relative="1" as="geometry">
            <mxPoint x="680" y="830" as="targetPoint" />
          </mxGeometry>
        </mxCell>
        <mxCell id="-173u6EWaOJRB0G8Tm7Y-92" value="" style="shape=providedRequiredInterface;html=1;verticalLabelPosition=bottom;sketch=0;direction=north;" vertex="1" parent="1">
          <mxGeometry x="670" y="930" width="20" height="20" as="geometry" />
        </mxCell>
        <mxCell id="-173u6EWaOJRB0G8Tm7Y-95" value="" style="whiteSpace=wrap;html=1;aspect=fixed;fillColor=#dae8fc;strokeColor=#6c8ebf;" vertex="1" parent="1">
          <mxGeometry x="650" y="1330" width="20" height="20" as="geometry" />
        </mxCell>
        <mxCell id="-173u6EWaOJRB0G8Tm7Y-96" value="" style="whiteSpace=wrap;html=1;aspect=fixed;fillColor=#dae8fc;strokeColor=#6c8ebf;" vertex="1" parent="1">
          <mxGeometry x="420" y="1330" width="20" height="20" as="geometry" />
        </mxCell>
        <mxCell id="-173u6EWaOJRB0G8Tm7Y-98" value="" style="whiteSpace=wrap;html=1;aspect=fixed;fillColor=#dae8fc;strokeColor=#6c8ebf;" vertex="1" parent="1">
          <mxGeometry x="920" y="1095" width="20" height="20" as="geometry" />
        </mxCell>
        <mxCell id="-173u6EWaOJRB0G8Tm7Y-99" value="" style="edgeStyle=orthogonalEdgeStyle;rounded=0;jumpStyle=arc;orthogonalLoop=1;jettySize=auto;html=1;endArrow=none;endFill=0;" edge="1" parent="1" source="-173u6EWaOJRB0G8Tm7Y-75" target="-173u6EWaOJRB0G8Tm7Y-98">
          <mxGeometry relative="1" as="geometry">
            <mxPoint x="830" y="1105" as="sourcePoint" />
            <mxPoint x="930" y="1105" as="targetPoint" />
          </mxGeometry>
        </mxCell>
        <mxCell id="-173u6EWaOJRB0G8Tm7Y-100" value="" style="whiteSpace=wrap;html=1;aspect=fixed;fillColor=#dae8fc;strokeColor=#6c8ebf;" vertex="1" parent="1">
          <mxGeometry x="670" y="1050" width="20" height="20" as="geometry" />
        </mxCell>
        <mxCell id="-173u6EWaOJRB0G8Tm7Y-107" value="Inventory" style="html=1;dropTarget=0;" vertex="1" parent="1">
          <mxGeometry x="90" y="1060" width="180" height="90" as="geometry" />
        </mxCell>
        <mxCell id="-173u6EWaOJRB0G8Tm7Y-108" value="" style="shape=module;jettyWidth=8;jettyHeight=4;" vertex="1" parent="-173u6EWaOJRB0G8Tm7Y-107">
          <mxGeometry x="1" width="20" height="20" relative="1" as="geometry">
            <mxPoint x="-27" y="7" as="offset" />
          </mxGeometry>
        </mxCell>
        <mxCell id="-173u6EWaOJRB0G8Tm7Y-110" value="Search" style="html=1;dropTarget=0;" vertex="1" parent="1">
          <mxGeometry x="340" y="1055" width="180" height="90" as="geometry" />
        </mxCell>
        <mxCell id="-173u6EWaOJRB0G8Tm7Y-111" value="" style="shape=module;jettyWidth=8;jettyHeight=4;" vertex="1" parent="-173u6EWaOJRB0G8Tm7Y-110">
          <mxGeometry x="1" width="20" height="20" relative="1" as="geometry">
            <mxPoint x="-27" y="7" as="offset" />
          </mxGeometry>
        </mxCell>
        <mxCell id="-173u6EWaOJRB0G8Tm7Y-114" style="edgeStyle=orthogonalEdgeStyle;rounded=0;jumpStyle=arc;orthogonalLoop=1;jettySize=auto;html=1;entryX=0.75;entryY=0;entryDx=0;entryDy=0;endArrow=none;endFill=0;" edge="1" parent="1" source="-173u6EWaOJRB0G8Tm7Y-112" target="-173u6EWaOJRB0G8Tm7Y-107">
          <mxGeometry relative="1" as="geometry">
            <Array as="points">
              <mxPoint x="310" y="1179" />
              <mxPoint x="310" y="1040" />
              <mxPoint x="225" y="1040" />
            </Array>
          </mxGeometry>
        </mxCell>
        <mxCell id="-173u6EWaOJRB0G8Tm7Y-112" value="" style="shape=providedRequiredInterface;html=1;verticalLabelPosition=bottom;sketch=0;direction=west;" vertex="1" parent="1">
          <mxGeometry x="420" y="1169" width="20" height="20" as="geometry" />
        </mxCell>
        <mxCell id="-173u6EWaOJRB0G8Tm7Y-116" value="" style="edgeStyle=orthogonalEdgeStyle;rounded=0;jumpStyle=arc;orthogonalLoop=1;jettySize=auto;html=1;endArrow=none;endFill=0;" edge="1" parent="1" source="-173u6EWaOJRB0G8Tm7Y-112">
          <mxGeometry relative="1" as="geometry">
            <mxPoint x="434" y="1040.0666666666666" as="sourcePoint" />
            <mxPoint x="630" y="1050" as="targetPoint" />
            <Array as="points">
              <mxPoint x="560" y="1179" />
              <mxPoint x="560" y="1030" />
              <mxPoint x="630" y="1030" />
            </Array>
          </mxGeometry>
        </mxCell>
        <mxCell id="-173u6EWaOJRB0G8Tm7Y-115" value="" style="whiteSpace=wrap;html=1;aspect=fixed;fillColor=#dae8fc;strokeColor=#6c8ebf;" vertex="1" parent="1">
          <mxGeometry x="620" y="1050" width="20" height="20" as="geometry" />
        </mxCell>
        <mxCell id="-173u6EWaOJRB0G8Tm7Y-117" value="&lt;p style=&quot;margin:0px;margin-top:6px;text-align:center;&quot;&gt;&lt;b&gt;Database&lt;/b&gt;&lt;/p&gt;&lt;hr&gt;&lt;p style=&quot;margin:0px;margin-left:8px;&quot;&gt;&lt;br&gt;&lt;/p&gt;" style="align=left;overflow=fill;html=1;dropTarget=0;" vertex="1" parent="1">
          <mxGeometry x="-390" y="990" width="320" height="560" as="geometry" />
        </mxCell>
        <mxCell id="-173u6EWaOJRB0G8Tm7Y-118" value="" style="shape=component;jettyWidth=8;jettyHeight=4;" vertex="1" parent="-173u6EWaOJRB0G8Tm7Y-117">
          <mxGeometry x="1" width="20" height="20" relative="1" as="geometry">
            <mxPoint x="-24" y="4" as="offset" />
          </mxGeometry>
        </mxCell>
        <mxCell id="-173u6EWaOJRB0G8Tm7Y-119" value="Search" style="html=1;dropTarget=0;" vertex="1" parent="1">
          <mxGeometry x="-320" y="1040" width="180" height="90" as="geometry" />
        </mxCell>
        <mxCell id="-173u6EWaOJRB0G8Tm7Y-120" value="" style="shape=module;jettyWidth=8;jettyHeight=4;" vertex="1" parent="-173u6EWaOJRB0G8Tm7Y-119">
          <mxGeometry x="1" width="20" height="20" relative="1" as="geometry">
            <mxPoint x="-27" y="7" as="offset" />
          </mxGeometry>
        </mxCell>
        <mxCell id="-173u6EWaOJRB0G8Tm7Y-121" value="Sale" style="html=1;dropTarget=0;" vertex="1" parent="1">
          <mxGeometry x="-320" y="1169" width="180" height="90" as="geometry" />
        </mxCell>
        <mxCell id="-173u6EWaOJRB0G8Tm7Y-122" value="" style="shape=module;jettyWidth=8;jettyHeight=4;" vertex="1" parent="-173u6EWaOJRB0G8Tm7Y-121">
          <mxGeometry x="1" width="20" height="20" relative="1" as="geometry">
            <mxPoint x="-27" y="7" as="offset" />
          </mxGeometry>
        </mxCell>
        <mxCell id="-173u6EWaOJRB0G8Tm7Y-123" value="Staff" style="html=1;dropTarget=0;" vertex="1" parent="1">
          <mxGeometry x="-320" y="1290" width="180" height="90" as="geometry" />
        </mxCell>
        <mxCell id="-173u6EWaOJRB0G8Tm7Y-124" value="" style="shape=module;jettyWidth=8;jettyHeight=4;" vertex="1" parent="-173u6EWaOJRB0G8Tm7Y-123">
          <mxGeometry x="1" width="20" height="20" relative="1" as="geometry">
            <mxPoint x="-27" y="7" as="offset" />
          </mxGeometry>
        </mxCell>
        <mxCell id="-173u6EWaOJRB0G8Tm7Y-125" value="Item" style="html=1;dropTarget=0;" vertex="1" parent="1">
          <mxGeometry x="-320" y="1410" width="180" height="90" as="geometry" />
        </mxCell>
        <mxCell id="-173u6EWaOJRB0G8Tm7Y-126" value="" style="shape=module;jettyWidth=8;jettyHeight=4;" vertex="1" parent="-173u6EWaOJRB0G8Tm7Y-125">
          <mxGeometry x="1" width="20" height="20" relative="1" as="geometry">
            <mxPoint x="-27" y="7" as="offset" />
          </mxGeometry>
        </mxCell>
        <mxCell id="-173u6EWaOJRB0G8Tm7Y-127" value="" style="whiteSpace=wrap;html=1;aspect=fixed;fillColor=#dae8fc;strokeColor=#6c8ebf;" vertex="1" parent="1">
          <mxGeometry x="-150" y="1080" width="20" height="20" as="geometry" />
        </mxCell>
        <mxCell id="-173u6EWaOJRB0G8Tm7Y-128" value="" style="whiteSpace=wrap;html=1;aspect=fixed;fillColor=#dae8fc;strokeColor=#6c8ebf;" vertex="1" parent="1">
          <mxGeometry x="-150" y="1210" width="20" height="20" as="geometry" />
        </mxCell>
        <mxCell id="-173u6EWaOJRB0G8Tm7Y-129" value="" style="whiteSpace=wrap;html=1;aspect=fixed;fillColor=#dae8fc;strokeColor=#6c8ebf;" vertex="1" parent="1">
          <mxGeometry x="-150" y="1330" width="20" height="20" as="geometry" />
        </mxCell>
        <mxCell id="-173u6EWaOJRB0G8Tm7Y-130" value="" style="whiteSpace=wrap;html=1;aspect=fixed;fillColor=#dae8fc;strokeColor=#6c8ebf;" vertex="1" parent="1">
          <mxGeometry x="-150" y="1445" width="20" height="20" as="geometry" />
        </mxCell>
        <mxCell id="-173u6EWaOJRB0G8Tm7Y-133" style="edgeStyle=orthogonalEdgeStyle;rounded=0;jumpStyle=arc;orthogonalLoop=1;jettySize=auto;html=1;entryX=0;entryY=0.5;entryDx=0;entryDy=0;entryPerimeter=0;endArrow=none;endFill=0;" edge="1" parent="1" source="-173u6EWaOJRB0G8Tm7Y-131" target="-173u6EWaOJRB0G8Tm7Y-132">
          <mxGeometry relative="1" as="geometry" />
        </mxCell>
        <mxCell id="-173u6EWaOJRB0G8Tm7Y-131" value="" style="whiteSpace=wrap;html=1;aspect=fixed;fillColor=#dae8fc;strokeColor=#6c8ebf;" vertex="1" parent="1">
          <mxGeometry x="-80" y="1070" width="20" height="20" as="geometry" />
        </mxCell>
        <mxCell id="-173u6EWaOJRB0G8Tm7Y-134" style="edgeStyle=orthogonalEdgeStyle;rounded=0;jumpStyle=arc;orthogonalLoop=1;jettySize=auto;html=1;entryX=0.001;entryY=0.429;entryDx=0;entryDy=0;entryPerimeter=0;endArrow=none;endFill=0;" edge="1" parent="1" source="-173u6EWaOJRB0G8Tm7Y-132" target="-173u6EWaOJRB0G8Tm7Y-51">
          <mxGeometry relative="1" as="geometry" />
        </mxCell>
        <mxCell id="-173u6EWaOJRB0G8Tm7Y-132" value="" style="shape=providedRequiredInterface;html=1;verticalLabelPosition=bottom;sketch=0;direction=east;" vertex="1" parent="1">
          <mxGeometry x="-30" y="1070" width="20" height="20" as="geometry" />
        </mxCell>
        <mxCell id="-173u6EWaOJRB0G8Tm7Y-136" style="edgeStyle=orthogonalEdgeStyle;rounded=0;jumpStyle=arc;orthogonalLoop=1;jettySize=auto;html=1;endArrow=none;endFill=0;" edge="1" parent="1" source="-173u6EWaOJRB0G8Tm7Y-135">
          <mxGeometry relative="1" as="geometry">
            <mxPoint x="190" y="1230" as="targetPoint" />
            <Array as="points">
              <mxPoint x="380" y="1310" />
              <mxPoint x="190" y="1310" />
            </Array>
          </mxGeometry>
        </mxCell>
        <mxCell id="-173u6EWaOJRB0G8Tm7Y-135" value="" style="whiteSpace=wrap;html=1;aspect=fixed;fillColor=#dae8fc;strokeColor=#6c8ebf;" vertex="1" parent="1">
          <mxGeometry x="370" y="1330" width="20" height="20" as="geometry" />
        </mxCell>
        <mxCell id="-173u6EWaOJRB0G8Tm7Y-138" style="edgeStyle=orthogonalEdgeStyle;rounded=0;jumpStyle=arc;orthogonalLoop=1;jettySize=auto;html=1;entryX=0.556;entryY=1;entryDx=0;entryDy=0;entryPerimeter=0;endArrow=none;endFill=0;" edge="1" parent="1" source="-173u6EWaOJRB0G8Tm7Y-137" target="-173u6EWaOJRB0G8Tm7Y-107">
          <mxGeometry relative="1" as="geometry" />
        </mxCell>
        <mxCell id="-173u6EWaOJRB0G8Tm7Y-137" value="" style="shape=providedRequiredInterface;html=1;verticalLabelPosition=bottom;sketch=0;direction=north;" vertex="1" parent="1">
          <mxGeometry x="180" y="1210" width="20" height="20" as="geometry" />
        </mxCell>
      </root>
    </mxGraphModel>
  </diagram>
</mxfile>
